<svg width="20" height="20" viewBox="0 0 20 20" fill="none" xmlns="http://www.w3.org/2000/svg">
<path d="M10 13.25C14.4873 13.25 18.125 11.7949 18.125 10C18.125 8.20507 14.4873 6.75 10 6.75C5.51268 6.75 1.875 8.20507 1.875 10C1.875 11.7949 5.51268 13.25 10 13.25Z" stroke="white" stroke-width="1.2" stroke-linecap="round" stroke-linejoin="round"/>
<path d="M13.25 10C13.25 14.4873 11.7949 18.125 10 18.125C8.20507 18.125 6.75 14.4873 6.75 10C6.75 5.51268 8.20507 1.875 10 1.875C11.7949 1.875 13.25 5.51268 13.25 10Z" stroke="white" stroke-width="1.2" stroke-linecap="round" stroke-linejoin="round"/>
<path d="M10 18.125C14.4873 18.125 18.125 14.4873 18.125 10C18.125 5.51269 14.4873 1.875 10 1.875C5.51269 1.875 1.875 5.51269 1.875 10C1.875 14.4873 5.51269 18.125 10 18.125Z" stroke="white" stroke-width="1.2" stroke-linejoin="round"/>
</svg>
