<svg width="265" height="26" viewBox="0 0 265 26" fill="none" xmlns="http://www.w3.org/2000/svg">
<path d="M1.60342 10.7447H7.70461L6.10119 25.7628H0L1.60342 10.7447Z" fill="#fff"/>
<path d="M1.60342 10.7447H7.70461L6.10119 25.7628H0L1.60342 10.7447Z" fill="white"/>
<path d="M32.8125 0V2.30905L9.8698 3.4469V1.14897L32.8125 0Z" fill="#fff"/>
<path d="M32.8125 0V2.30905L9.8698 3.4469V1.14897L32.8125 0Z" fill="white"/>
<path d="M7.67114 0.459586H0.0334921V2.77234H7.67114V0.459586Z" fill="#fff"/>
<path d="M7.67114 0.459586H0.0334921V2.77234H7.67114V0.459586Z" fill="white"/>
<path d="M72.2582 3.89907V1.67897H71.3542L71.6667 0.0889515H66.0863L65.7738 1.67897H63.1585L62.8795 0.0889515H57.2656L57.5781 1.67897H56.6741V3.89907H61.5365V10.0331H56.6741V12.3384H61.3579L56.6741 25.7035H61.3356L64.4159 17.0974L67.4591 25.7035H72.2582L67.4033 12.3384H72.2582V10.0331H67.3958V3.89907H72.2582Z" fill="#fff"/>
<path d="M72.2582 3.89907V1.67897H71.3542L71.6667 0.0889515H66.0863L65.7738 1.67897H63.1585L62.8795 0.0889515H57.2656L57.5781 1.67897H56.6741V3.89907H61.5365V10.0331H56.6741V12.3384H61.3579L56.6741 25.7035H61.3356L64.4159 17.0974L67.4591 25.7035H72.2582L67.4033 12.3384H72.2582V10.0331H67.3958V3.89907H72.2582Z" fill="white"/>
<path d="M39.4829 2.77234H40.2865V22.6235L39.4829 22.6643V24.977L49.1406 24.4841V25.7035H54.6503V24.1987L55.3832 24.1691V21.8526L54.6503 21.8897V2.77234H55.3832V0.459586H39.4829V2.77234ZM49.1406 22.1713L45.7589 22.3418V17.0974H49.1406V22.1713ZM49.1406 14.881H45.7589V10.0257H49.1406V14.881ZM49.1406 7.69807H45.7589V2.77234H49.1406V7.69807Z" fill="#fff"/>
<path d="M39.4829 2.77234H40.2865V22.6235L39.4829 22.6643V24.977L49.1406 24.4841V25.7035H54.6503V24.1987L55.3832 24.1691V21.8526L54.6503 21.8897V2.77234H55.3832V0.459586H39.4829V2.77234ZM49.1406 22.1713L45.7589 22.3418V17.0974H49.1406V22.1713ZM49.1406 14.881H45.7589V10.0257H49.1406V14.881ZM49.1406 7.69807H45.7589V2.77234H49.1406V7.69807Z" fill="white"/>
<path d="M7.67114 5.40014H0.0334921V7.7129H7.67114V5.40014Z" fill="#fff"/>
<path d="M7.67114 5.40014H0.0334921V7.7129H7.67114V5.40014Z" fill="white"/>
<path d="M24.096 7.7129V4.62552H17.7232V7.7129H9.8698V10.0257H25.1042L9.24108 23.4537V25.7035H32.8125V23.3907H17.1243L32.7381 10.0257H32.8125V7.7129H24.096Z" fill="#fff"/>
<path d="M24.096 7.7129V4.62552H17.7232V7.7129H9.8698V10.0257H25.1042L9.24108 23.4537V25.7035H32.8125V23.3907H17.1243L32.7381 10.0257H32.8125V7.7129H24.096Z" fill="white"/>
<path d="M85.3534 12.8962C85.3534 11.7509 84.4215 10.8225 83.2719 10.8225C82.1224 10.8225 81.1905 11.7509 81.1905 12.8962C81.1905 14.0415 82.1224 14.9699 83.2719 14.9699C84.4215 14.9699 85.3534 14.0415 85.3534 12.8962Z" fill="#fff"/>
<path d="M85.3534 12.8962C85.3534 11.7509 84.4215 10.8225 83.2719 10.8225C82.1224 10.8225 81.1905 11.7509 81.1905 12.8962C81.1905 14.0415 82.1224 14.9699 83.2719 14.9699C84.4215 14.9699 85.3534 14.0415 85.3534 12.8962Z" fill="white"/>
<path d="M100.071 2.83535V11.7602H113.11V2.83535H119.26V25.6998H113.11V14.2694H100.071V25.6998H93.9211V2.83535H100.071Z" fill="#fff"/>
<path d="M100.071 2.83535V11.7602H113.11V2.83535H119.26V25.6998H113.11V14.2694H100.071V25.6998H93.9211V2.83535H100.071Z" fill="white"/>
<path d="M128.46 2.83535L135.986 12.2569L143.512 2.83535H149.661L139.044 15.5815V25.6998H132.894V15.5815L122.314 2.83535H128.464H128.46Z" fill="#fff"/>
<path d="M128.46 2.83535L135.986 12.2569L143.512 2.83535H149.661L139.044 15.5815V25.6998H132.894V15.5815L122.314 2.83535H128.464H128.46Z" fill="white"/>
<path d="M178.051 9.41411C178.051 13.0463 175.097 15.9892 171.451 15.9892H158.828V25.6998H152.716V2.83535H171.451C175.097 2.83535 178.051 5.77819 178.051 9.41041V9.41411ZM158.824 13.4503H167.924C170.164 13.4503 171.979 11.6416 171.979 9.41041C171.979 7.17919 170.164 5.37049 167.924 5.37049H158.824V13.4503Z" fill="#fff"/>
<path d="M178.051 9.41411C178.051 13.0463 175.097 15.9892 171.451 15.9892H158.828V25.6998H152.716V2.83535H171.451C175.097 2.83535 178.051 5.77819 178.051 9.41041V9.41411ZM158.824 13.4503H167.924C170.164 13.4503 171.979 11.6416 171.979 9.41041C171.979 7.17919 170.164 5.37049 167.924 5.37049H158.824V13.4503Z" fill="white"/>
<path d="M235.502 14.2694C235.502 20.7481 230.231 26 223.731 26H220.781C214.278 26 209.01 20.7481 209.01 14.2731C209.01 7.79444 214.282 2.54255 220.781 2.54255H223.731C230.234 2.54255 235.502 7.79444 235.502 14.2694ZM222.254 23.3648C226.086 23.3648 229.193 20.27 229.193 16.4525V12.0604C229.193 8.24291 226.086 5.14811 222.254 5.14811C218.423 5.14811 215.316 8.24291 215.316 12.0604V16.4525C215.316 20.27 218.423 23.3648 222.254 23.3648Z" fill="#fff"/>
<path d="M235.502 14.2694C235.502 20.7481 230.231 26 223.731 26H220.781C214.278 26 209.01 20.7481 209.01 14.2731C209.01 7.79444 214.282 2.54255 220.781 2.54255H223.731C230.234 2.54255 235.502 7.79444 235.502 14.2694ZM222.254 23.3648C226.086 23.3648 229.193 20.27 229.193 16.4525V12.0604C229.193 8.24291 226.086 5.14811 222.254 5.14811C218.423 5.14811 215.316 8.24291 215.316 12.0604V16.4525C215.316 20.27 218.423 23.3648 222.254 23.3648Z" fill="white"/>
<path d="M247.972 2.83535L258.85 21.2077V2.83535H265V25.6998H256.693L245.74 7.26814V25.6998H239.665V2.83535H247.972Z" fill="#fff"/>
<path d="M247.972 2.83535L258.85 21.2077V2.83535H265V25.6998H256.693L245.74 7.26814V25.6998H239.665V2.83535H247.972Z" fill="white"/>
<path d="M181.927 18.7837C181.927 22.605 185.037 25.7035 188.873 25.7035H200.078C202.894 25.7035 205.179 23.4278 205.179 20.6221H199.115C199.115 22.012 197.984 23.135 196.592 23.135H190.751C189.275 23.135 188.077 21.9416 188.077 20.4701V8.03535C188.077 6.56393 189.275 5.37049 190.751 5.37049H196.562C197.972 5.37049 199.115 6.50834 199.115 7.91304H205.179C205.179 5.10734 202.894 2.83165 200.078 2.83165H188.873C185.037 2.83165 181.927 5.93015 181.927 9.75139V18.7837Z" fill="#fff"/>
<path d="M181.927 18.7837C181.927 22.605 185.037 25.7035 188.873 25.7035H200.078C202.894 25.7035 205.179 23.4278 205.179 20.6221H199.115C199.115 22.012 197.984 23.135 196.592 23.135H190.751C189.275 23.135 188.077 21.9416 188.077 20.4701V8.03535C188.077 6.56393 189.275 5.37049 190.751 5.37049H196.562C197.972 5.37049 199.115 6.50834 199.115 7.91304H205.179C205.179 5.10734 202.894 2.83165 200.078 2.83165H188.873C185.037 2.83165 181.927 5.93015 181.927 9.75139V18.7837Z" fill="white"/>
</svg>
