<?xml version="1.0" encoding="UTF-8"?>
<svg version="1.1" xmlns="http://www.w3.org/2000/svg" width="304" height="52">
<path d="M0 0 C0 1.65 0 3.3 0 5 C9.24 5 18.48 5 28 5 C27.67 18.2 27.34 31.4 27 45 C18.09 45 9.18 45 0 45 C0 47.31 0 49.62 0 52 C-4.62 52 -9.24 52 -14 52 C-14 49.69 -14 47.38 -14 45 C-22.91 45 -31.82 45 -41 45 C-41 31.8 -41 18.6 -41 5 C-32.09 5 -23.18 5 -14 5 C-14 3.68 -14 2.36 -14 1 C-11.85420251 0.83287252 -9.70836101 0.66631 -7.5625 0.5 C-5.77005859 0.36078125 -5.77005859 0.36078125 -3.94140625 0.21875 C-1 -0 -1 -0 0 0 Z M-29 10 C-29 19.9 -29 29.8 -29 40 C-24.05 40 -19.1 40 -14 40 C-14 30.1 -14 20.2 -14 10 C-18.95 10 -23.9 10 -29 10 Z M-1 10 C-0.67 19.9 -0.34 29.8 0 40 C4.62 40 9.24 40 14 40 C14 30.1 14 20.2 14 10 C9.05 10 4.1 10 -1 10 Z " fill="#FAFAFA" transform="translate(41,0)"/>
<path d="M0 0 C2.59269983 0.01747888 5.0525154 0.13768592 7.625 0.375 C8.33140625 0.43171875 9.0378125 0.4884375 9.765625 0.546875 C11.51121361 0.68840921 13.25573673 0.84297387 15 1 C15 1.33 15 1.66 15 2 C36.78 2.495 36.78 2.495 59 3 C59.33 13.23 59.66 23.46 60 34 C36.9 33.67 13.8 33.34 -10 33 C-10 22.77 -10 12.54 -10 2 C-7.36 2 -4.72 2 -2 2 C-1.34 1.34 -0.68 0.68 0 0 Z M3 8 C3 8.99 3 9.98 3 11 C17.19 11 31.38 11 46 11 C46 10.01 46 9.02 46 8 C31.81 8 17.62 8 3 8 Z M3 16 C3.33 17.32 3.66 18.64 4 20 C17.86 19.67 31.72 19.34 46 19 C46 18.01 46 17.02 46 16 C31.81 16 17.62 16 3 16 Z M3 24 C3 25.32 3 26.64 3 28 C17.19 28 31.38 28 46 28 C46 26.68 46 25.36 46 24 C31.81 24 17.62 24 3 24 Z " fill="#F9F9F9" transform="translate(244,0)"/>
<path d="M0 0 C4.29 0.33 8.58 0.66 13 1 C13 1.66 13 2.32 13 3 C14.65 2.67 16.3 2.34 18 2 C18 3.98 18 5.96 18 8 C16.35 8 14.7 8 13 8 C13.33 10.64 13.66 13.28 14 16 C14.99 15.67 15.98 15.34 17 15 C18 16 18 16 18.0625 19.0625 C18.041875 20.031875 18.02125 21.00125 18 22 C20.18140916 19.81859084 21.69525153 17.54046007 23.20703125 14.859375 C25.8272319 12.14212988 27.98782509 12.39652178 31.6875 12.25 C32.86699219 12.19328125 34.04648438 12.1365625 35.26171875 12.078125 C36.16535156 12.05234375 37.06898437 12.0265625 38 12 C36.91695786 16.55067705 35.58597118 19.86227522 32 23 C28.70374704 24.64812648 25.00541525 24.38249331 21.375 24.5625 C17.229375 24.7790625 17.229375 24.7790625 13 25 C13 33.91 13 42.82 13 52 C6.4 52 -0.2 52 -7 52 C-7.33 50.35 -7.66 48.7 -8 47 C-5.36 47 -2.72 47 0 47 C0 42.05 0 37.1 0 32 C-1.65 32.66 -3.3 33.32 -5 34 C-5.66 34 -6.32 34 -7 34 C-7.33 31.36 -7.66 28.72 -8 26 C-7.030625 25.525625 -6.06125 25.05125 -5.0625 24.5625 C-2.19522563 23.29806053 -2.19522563 23.29806053 -1 22 C-0.76472227 19.65012738 -0.58613583 17.29443961 -0.4375 14.9375 C-0.35371094 13.64714844 -0.26992187 12.35679688 -0.18359375 11.02734375 C-0.12300781 10.02832031 -0.06242187 9.02929688 0 8 C-2.64 8 -5.28 8 -8 8 C-7.67 6.35 -7.34 4.7 -7 3 C-4.69 3 -2.38 3 0 3 C0 2.01 0 1.02 0 0 Z " fill="#F9F9F9" transform="translate(84,0)"/>
<path d="M0 0 C16.17 0 32.34 0 49 0 C49 8.25 49 16.5 49 25 C32.83 25 16.66 25 0 25 C0 16.75 0 8.5 0 0 Z M13 6 C13 10.62 13 15.24 13 20 C20.59 20 28.18 20 36 20 C36 15.38 36 10.76 36 6 C28.41 6 20.82 6 13 6 Z " fill="#FAFAFA" transform="translate(175,27)"/>
<path d="M0 0 C1.2077558 3.62326739 0.54311128 4.64146369 -1 8 C-1.66 8 -2.32 8 -3 8 C-3 22.52 -3 37.04 -3 52 C-7.29 52 -11.58 52 -16 52 C-16.33 39.46 -16.66 26.92 -17 14 C-17.66 13.67 -18.32 13.34 -19 13 C-19 10.36 -19 7.72 -19 5 C-18.154375 4.731875 -17.30875 4.46375 -16.4375 4.1875 C-12.94188433 3.04525391 -12.94188433 3.04525391 -9.5 1.375 C-6.00971879 0.0038181 -3.7013105 -0.2708276 0 0 Z " fill="#FAFAFA" transform="translate(174,0)"/>
<path d="M0 0 C13.53 0 27.06 0 41 0 C41 1.65 41 3.3 41 5 C36.38 5 31.76 5 27 5 C27 9.62 27 14.24 27 19 C31.95 19 36.9 19 42 19 C41.505 21.475 41.505 21.475 41 24 C27.47 24 13.94 24 0 24 C-0.33 22.35 -0.66 20.7 -1 19 C3.95 19 8.9 19 14 19 C14 14.38 14 9.76 14 5 C9.05 5 4.1 5 -1 5 C-0.67 3.35 -0.34 1.7 0 0 Z " fill="#FAFAFA" transform="translate(104,28)"/>
<path d="M0 0 C4.95 0 9.9 0 15 0 C14.67 3.96 14.34 7.92 14 12 C21.59 12 29.18 12 37 12 C37 13.65 37 15.3 37 17 C25.12 17 13.24 17 1 17 C0.67 11.39 0.34 5.78 0 0 Z " fill="#FAFAFA" transform="translate(251,35)"/>
<path d="M0 0 C3.63 0 7.26 0 11 0 C11 0.66 11 1.32 11 2 C15.95 2 20.9 2 26 2 C26 4.97 26 7.94 26 11 C21.66726186 11.92844389 18.33273814 11.92844389 14 11 C14 9.68 14 8.36 14 7 C8.39 7 2.78 7 -3 7 C-3 8.32 -3 9.64 -3 11 C-9.435 11.495 -9.435 11.495 -16 12 C-16 8.37 -16 4.74 -16 1 C-10.72 1.33 -5.44 1.66 0 2 C0 1.34 0 0.68 0 0 Z " fill="#F9F9F9" transform="translate(119,1)"/>
<path d="M0 0 C16.5 0 33 0 50 0 C50 1.98 50 3.96 50 6 C33.5 6 17 6 0 6 C0 4.02 0 2.04 0 0 Z " fill="#FAFAFA" transform="translate(174,19)"/>
<path d="M0 0 C4.29 0 8.58 0 13 0 C13 0.66 13 1.32 13 2 C18.94 1.67 24.88 1.34 31 1 C31 2.98 31 4.96 31 7 C14.5 7 -2 7 -19 7 C-18.67 5.35 -18.34 3.7 -18 2 C-12.06 2 -6.12 2 0 2 C0 1.34 0 0.68 0 0 Z " fill="#FAFAFA" transform="translate(193,1)"/>
<path d="M0 0 C16.17 0 32.34 0 49 0 C49 1.98 49 3.96 49 6 C24.745 5.505 24.745 5.505 0 5 C0 3.35 0 1.7 0 0 Z " fill="#FAFAFA" transform="translate(175,11)"/>
<path d="M0 0 C4.62 0 9.24 0 14 0 C14.33 5.61 14.66 11.22 15 17 C10.71 17 6.42 17 2 17 C1.855625 15.88625 1.71125 14.7725 1.5625 13.625 C1.21627965 10.17857953 1.21627965 10.17857953 0 8 C-0.13415472 5.3276379 -0.04318541 2.67749512 0 0 Z " fill="#FAFAFA" transform="translate(289,35)"/>
<path d="M0 0 C4.62 0 9.24 0 14 0 C13.69188262 2.45895618 13.37871012 4.91708307 13.0625 7.375 C12.93198242 8.42300781 12.93198242 8.42300781 12.79882812 9.4921875 C12.11328125 14.7734375 12.11328125 14.7734375 11 17 C6.71 17 2.42 17 -2 17 C-1.34 11.39 -0.68 5.78 0 0 Z " fill="#F9F9F9" transform="translate(235,35)"/>
<path d="M0 0 C4.66769946 2.94268009 4.66769946 2.94268009 5.6875 6.1875 C5.790625 6.785625 5.89375 7.38375 6 8 C6.66 8.33 7.32 8.66 8 9 C7.67 9.99 7.34 10.98 7 12 C-2.83461299 11.65553019 -2.83461299 11.65553019 -7 9.3125 C-9.24874088 6.71239336 -10.6403704 4.14861592 -12 1 C-7.66217778 -1.23463569 -4.70996826 -1.17749207 0 0 Z " fill="#FAFAFA" transform="translate(139,13)"/>
<path d="M0 0 C1.95803507 -0.05389087 3.91648909 -0.09274217 5.875 -0.125 C7.51082031 -0.15980469 7.51082031 -0.15980469 9.1796875 -0.1953125 C12 0 12 0 14 2 C14.26991906 4.68839385 14.08737357 7.29141936 14 10 C8.06 10.495 8.06 10.495 2 11 C1.34 7.37 0.68 3.74 0 0 Z " fill="#FAFAFA" transform="translate(271,35)"/>
<path d="" fill="#FFFFFF" transform="translate(0,0)"/>
<path d="" fill="#FFFFFF" transform="translate(0,0)"/>
<path d="" fill="#FFFFFF" transform="translate(0,0)"/>
<path d="" fill="#FFFFFF" transform="translate(0,0)"/>
<path d="" fill="#FFFFFF" transform="translate(0,0)"/>
<path d="" fill="#FFFFFF" transform="translate(0,0)"/>
<path d="" fill="#FFFFFF" transform="translate(0,0)"/>
<path d="" fill="#FFFFFF" transform="translate(0,0)"/>
<path d="" fill="#FFFFFF" transform="translate(0,0)"/>
<path d="" fill="#FFFFFF" transform="translate(0,0)"/>
<path d="" fill="#FFFFFF" transform="translate(0,0)"/>
<path d="" fill="#FFFFFF" transform="translate(0,0)"/>
<path d="" fill="#FFFFFF" transform="translate(0,0)"/>
<path d="" fill="#FFFFFF" transform="translate(0,0)"/>
<path d="" fill="#FFFFFF" transform="translate(0,0)"/>
<path d="" fill="#FFFFFF" transform="translate(0,0)"/>
<path d="" fill="#FFFFFF" transform="translate(0,0)"/>
<path d="" fill="#FFFFFF" transform="translate(0,0)"/>
<path d="" fill="#FFFFFF" transform="translate(0,0)"/>
<path d="" fill="#FFFFFF" transform="translate(0,0)"/>
<path d="" fill="#FFFFFF" transform="translate(0,0)"/>
<path d="" fill="#FFFFFF" transform="translate(0,0)"/>
<path d="" fill="#FFFFFF" transform="translate(0,0)"/>
<path d="" fill="#FFFFFF" transform="translate(0,0)"/>
<path d="" fill="#FFFFFF" transform="translate(0,0)"/>
<path d="" fill="#FFFFFF" transform="translate(0,0)"/>
<path d="" fill="#FFFFFF" transform="translate(0,0)"/>
<path d="" fill="#FFFFFF" transform="translate(0,0)"/>
<path d="" fill="#FFFFFF" transform="translate(0,0)"/>
</svg>
